<svg width="512" height="512" viewBox="0 0 512 512" fill="none" xmlns="http://www.w3.org/2000/svg">
<path d="M100 101.385C100 88.4395 113.255 79.7267 125.139 84.8606L270.173 147.519C273.103 148.785 275 151.671 275 154.863V375.829C275 381.582 269.109 385.455 263.827 383.173L122.929 322.301C109.012 316.289 100 302.578 100 287.418V101.385Z" fill="#CAD5FA"/>
<path d="M409 101.385C409 88.4395 395.745 79.7267 383.861 84.8606L238.827 147.519C235.897 148.785 234 151.671 234 154.863V375.829C234 381.582 239.891 385.455 245.173 383.173L386.071 322.301C399.988 316.289 409 302.578 409 287.418V101.385Z" fill="#D4DEFF"/>
<path d="M63.841 146.658C61.7004 131.333 77.0279 119.486 91.3188 125.421L257.035 194.236C258.997 195.05 260.382 196.842 260.676 198.947L288.286 396.615C292.139 424.201 264.55 445.525 238.826 434.843L116.911 384.217C103.828 378.784 94.5951 366.838 92.6355 352.808L63.841 146.658Z" fill="#1D54A7"/>
<path d="M448.159 146.658C450.3 131.333 434.972 119.486 420.681 125.421L272.911 186.783C259.828 192.216 250.595 204.162 248.636 218.192L223.714 396.615C219.861 424.201 247.45 445.525 273.174 434.843L399.312 382.463C409.778 378.117 417.164 368.56 418.732 357.337L448.159 146.658Z" fill="url(#paint0_linear_37_104)"/>
<path d="M261.669 395.564L281.625 267.276C282.91 259.014 285.302 251.623 288.799 245.104C292.297 238.584 296.381 232.991 301.051 228.324C305.745 223.505 310.751 219.501 316.068 216.313C321.408 212.972 326.487 210.379 331.302 208.534C336.118 206.689 342.786 204.207 351.306 201.087C359.85 197.814 369.046 194.579 378.893 191.382C388.919 187.973 398.342 185.154 407.162 182.926L401.343 220.334L337.961 244.615C334.078 246.103 331.115 248.245 329.073 251.042C327.055 253.685 325.867 256.155 325.51 258.45L322.511 277.727L384.836 256.009L379.339 291.352L316.3 317.66L306.875 378.247L261.669 395.564Z" fill="white"/>
<defs>
<linearGradient id="paint0_linear_37_104" x1="315.6" y1="112" x2="315.6" y2="459.001" gradientUnits="userSpaceOnUse">
<stop stop-color="#307BEB"/>
<stop offset="1" stop-color="#04BF93"/>
</linearGradient>
</defs>
</svg>
